<svg width="197" height="197" viewBox="0 0 197 197" fill="none" xmlns="http://www.w3.org/2000/svg">
<mask id="mask0_2_523" style="mask-type:luminance" maskUnits="userSpaceOnUse" x="0" y="0" width="197" height="197">
<path d="M196.517 0.48291H0V197H196.517V0.48291Z" fill="white"/>
</mask>
<g mask="url(#mask0_2_523)">
<path d="M95.188 89.53V77.248C95.1878 76.4336 94.8641 75.6526 94.2883 75.0768C93.7124 74.5009 92.9314 74.1773 92.117 74.177H73.694C72.8796 74.1773 72.0987 74.5009 71.5228 75.0768C70.9469 75.6526 70.6233 76.4336 70.623 77.248V89.53C70.6276 92.2473 71.5349 94.8861 73.2024 97.0316C74.8699 99.1771 77.203 100.708 79.835 101.383V114.098H73.694V120.239H92.118V114.098H85.976V101.383C88.6075 100.708 90.9401 99.1779 92.6075 97.0332C94.2749 94.8885 95.1826 92.2506 95.188 89.534" fill="#F8CF6D"/>
<path d="M125.894 89.53V77.248C125.894 76.4336 125.57 75.6526 124.994 75.0768C124.418 74.5009 123.637 74.1773 122.823 74.177H104.4C103.586 74.1773 102.805 74.5009 102.229 75.0768C101.653 75.6526 101.329 76.4336 101.329 77.248V89.53C101.334 92.2466 102.242 94.8845 103.91 97.0292C105.577 99.1739 107.91 100.704 110.541 101.379V114.094H104.4V120.235H122.824V114.094H116.683V101.383C119.314 100.708 121.647 99.1779 123.314 97.0332C124.982 94.8885 125.89 92.2506 125.895 89.534" fill="#F8CF6D"/>
<path d="M49.093 153.545C48.9693 152.74 48.531 152.018 47.8746 151.536C47.2183 151.055 46.3975 150.854 45.593 150.978C44.7885 151.102 44.066 151.54 43.5846 152.196C43.1032 152.853 42.9023 153.673 43.026 154.478L44.371 163.223H17.042L18.387 154.483C18.4483 154.084 18.4305 153.678 18.3346 153.286C18.2388 152.895 18.0667 152.526 17.8284 152.201C17.347 151.545 16.6245 151.107 15.82 150.983C15.0155 150.859 14.1947 151.06 13.5384 151.541C12.882 152.023 12.4437 152.745 12.32 153.55L6.17799 193.463C6.11673 193.861 6.13453 194.268 6.23038 194.659C6.32623 195.051 6.49825 195.419 6.73662 195.744C6.97499 196.069 7.27504 196.344 7.61963 196.553C7.96423 196.762 8.34663 196.902 8.74499 196.963C9.14336 197.024 9.54989 197.006 9.94137 196.91C10.3329 196.815 10.7016 196.643 11.0266 196.404C11.3516 196.166 11.6265 195.866 11.8356 195.521C12.0446 195.177 12.1837 194.794 12.245 194.396L14.207 181.647H47.207L49.169 194.396C49.2927 195.2 49.731 195.923 50.3874 196.404C51.0437 196.886 51.8645 197.087 52.669 196.963C53.4735 196.839 54.196 196.401 54.6774 195.744C55.1588 195.088 55.3597 194.267 55.236 193.463L49.093 153.545ZM15.153 175.506L16.099 169.365H45.316L46.259 175.506H15.153Z" fill="#0C3798"/>
<path d="M11.791 144.8L9.391 84.8279C9.31944 83.6152 8.78108 82.4773 7.88881 81.6528C6.99655 80.8284 5.8197 80.3814 4.60509 80.4057C3.39048 80.43 2.23246 80.9237 1.37391 81.7832C0.515355 82.6427 0.0229633 83.8013 0 85.0159L0 92.5999L2.791 151.233C2.86556 152.81 3.54453 154.297 4.68695 155.387C5.82937 156.476 7.34746 157.083 8.926 157.083H64.482V144.8H11.791Z" fill="#2F79F0"/>
<path d="M184.2 153.545C184.076 152.74 183.638 152.018 182.982 151.536C182.325 151.055 181.505 150.854 180.7 150.978C179.895 151.102 179.173 151.54 178.692 152.196C178.21 152.853 178.009 153.673 178.133 154.478L179.478 163.223H152.147L153.492 154.483C153.616 153.678 153.415 152.858 152.933 152.201C152.452 151.545 151.73 151.107 150.925 150.983C150.12 150.859 149.3 151.06 148.643 151.541C147.987 152.023 147.549 152.745 147.425 153.55L141.284 193.468C141.16 194.272 141.361 195.093 141.843 195.749C142.324 196.406 143.046 196.844 143.851 196.968C144.655 197.092 145.476 196.891 146.133 196.409C146.789 195.928 147.227 195.205 147.351 194.401L149.313 181.652H182.313L184.275 194.401C184.399 195.205 184.837 195.928 185.493 196.409C186.15 196.891 186.97 197.092 187.775 196.968C188.579 196.844 189.302 196.406 189.783 195.749C190.265 195.093 190.466 194.272 190.342 193.468L184.2 153.545ZM150.261 175.506L151.207 169.365H180.424L181.367 175.506H150.261Z" fill="#0C3798"/>
<path d="M184.726 144.8L187.126 84.8279C187.191 83.61 187.726 82.4648 188.619 81.6344C189.513 80.804 190.694 80.3534 191.913 80.3776C193.132 80.4019 194.295 80.8992 195.154 81.7645C196.014 82.6298 196.503 83.7953 196.519 85.0148V92.5988L193.728 151.232C193.653 152.808 192.974 154.296 191.832 155.385C190.689 156.474 189.171 157.081 187.593 157.081H132.035V144.8H184.726Z" fill="#2F79F0"/>
<path d="M135.106 52.6828C135.106 49.0389 136.186 45.4768 138.211 42.447C140.235 39.4172 143.113 37.0557 146.479 35.6612C149.846 34.2668 153.55 33.9019 157.124 34.6128C160.698 35.3237 163.981 37.0784 166.558 39.6551C169.134 42.2317 170.889 45.5145 171.6 49.0885C172.311 52.6624 171.946 56.3668 170.552 59.7334C169.157 63.0999 166.796 65.9773 163.766 68.0018C160.736 70.0262 157.174 71.1068 153.53 71.1068C151.11 71.1071 148.715 70.6307 146.479 69.7049C144.244 68.7791 142.213 67.422 140.502 65.7111C138.791 64.0002 137.434 61.9691 136.508 59.7337C135.582 57.4982 135.106 55.1023 135.106 52.6828Z" fill="#88B8F9"/>
<path d="M104.4 132.518H92.118V190.859H104.4V132.518Z" fill="#0C3798"/>
<path d="M107.47 190.859V181.647H89.047V190.859H73.694V197H122.823V190.859H107.47Z" fill="#2F79F0"/>
<path d="M65.557 108.997C66.7082 109.39 67.9444 109.463 69.134 109.209C70.3235 108.955 71.4219 108.383 72.312 107.554L89.907 91.188C91.0613 90.1165 91.7611 88.6435 91.8627 87.0719C91.9643 85.5003 91.4598 83.9495 90.4531 82.7384C89.4464 81.5272 88.0139 80.7479 86.4502 80.5605C84.8865 80.3731 83.3104 80.792 82.046 81.731L66.632 93.215L53.05 86.905C51.992 83.0836 49.6575 79.7397 46.4348 77.4297C43.2121 75.1196 39.2956 73.9827 35.3369 74.208C31.3782 74.4333 27.616 76.0074 24.6763 78.6682C21.7365 81.329 19.7965 84.9162 19.179 88.833L12.421 131.633C12.165 133.259 12.2643 134.92 12.712 136.504C13.1597 138.088 13.9452 139.555 15.0144 140.806C16.0836 142.058 17.4111 143.062 18.9057 143.751C20.4003 144.44 22.0263 144.797 23.672 144.797C46.443 144.797 39.151 144.459 56.131 146.097L55.284 190.497C55.2549 192.084 55.8408 193.621 56.9192 194.785C57.9975 195.95 59.4847 196.652 61.0692 196.745C62.6537 196.838 64.2127 196.314 65.4198 195.284C66.6269 194.253 67.3885 192.795 67.545 191.216L72.682 139.139C72.8669 137.19 72.3197 135.242 71.147 133.674C69.9743 132.106 68.26 131.031 66.338 130.658L50.619 127.673L52.627 104.601C65.465 108.952 64.507 108.62 65.557 109.001" fill="#88B8F9"/>
<path d="M166.963 77.2478C163.507 77.254 160.133 78.2998 157.28 80.2492C154.426 82.1987 152.225 84.9617 150.963 88.1788L136.82 93.2788L117.951 75.9788C116.784 74.9064 115.248 74.3263 113.663 74.3598C112.078 74.3933 110.568 75.0377 109.447 76.1585C108.326 77.2793 107.681 78.7898 107.648 80.3746C107.614 81.9593 108.195 83.4957 109.267 84.6628L129.834 107.083C130.667 107.99 131.728 108.658 132.906 109.017C134.084 109.376 135.337 109.413 136.534 109.125C137.778 108.825 146.956 106.61 149.151 106.082L148.19 127.235L130.15 130.665C128.232 131.038 126.522 132.114 125.355 133.681C124.188 135.249 123.648 137.195 123.84 139.14L128.977 191.217C129.131 192.799 129.891 194.26 131.099 195.294C132.307 196.327 133.868 196.853 135.455 196.76C137.042 196.667 138.531 195.963 139.61 194.795C140.689 193.627 141.273 192.087 141.241 190.498L140.39 146.098C157.37 144.461 150.256 144.798 171.956 144.798C175.213 144.798 178.337 143.503 180.64 141.2C182.944 138.897 184.238 135.773 184.238 132.516V94.5158C184.238 92.2476 183.792 90.0015 182.924 87.9058C182.056 85.8102 180.784 83.906 179.18 82.3021C177.576 80.6982 175.672 79.426 173.576 78.5581C171.48 77.6902 169.234 77.2436 166.966 77.2438" fill="#88B8F9"/>
<path d="M70.623 52.6828C70.6232 49.0388 69.5428 45.4766 67.5184 42.4466C65.4941 39.4167 62.6166 37.055 59.2501 35.6605C55.8835 34.2659 52.1789 33.9009 48.6049 34.6118C45.0309 35.3226 41.748 37.0774 39.1713 39.6541C36.5946 42.2308 34.8399 45.5137 34.129 49.0877C33.4181 52.6617 33.7831 56.3663 35.1777 59.7328C36.5723 63.0994 38.9339 65.9768 41.9638 68.0012C44.9938 70.0256 48.556 71.106 52.2 71.1058C54.6194 71.1059 57.0151 70.6295 59.2504 69.7037C61.4856 68.7779 63.5166 67.4209 65.2274 65.7101C66.9381 63.9994 68.2951 61.9684 69.2209 59.7332C70.1467 57.4979 70.6232 55.1022 70.623 52.6828Z" fill="#88B8F9"/>
<path d="M36.847 43.4708C34.9057 43.2765 32.9452 43.4911 31.0919 44.1009C29.2386 44.7108 27.5337 45.7023 26.0871 47.0115C24.6406 48.3206 23.4845 49.9185 22.6933 51.7019C21.9022 53.4854 21.4936 55.4148 21.494 57.3658C21.4937 59.8777 20.5673 62.3013 18.8921 64.173C17.2169 66.0447 14.9105 67.233 12.414 67.5108L10.559 67.7168C9.73443 67.8065 8.97566 68.209 8.43898 68.8414C7.9023 69.4738 7.62859 70.2879 7.67422 71.1161C7.71985 71.9443 8.08136 72.7234 8.68427 73.293C9.28717 73.8626 10.0856 74.1793 10.915 74.1778H19.09C20.7682 74.1779 22.4282 73.831 23.966 73.1591C25.5037 72.4871 26.886 71.5046 28.026 70.2731C29.1661 69.0416 30.0392 67.5877 30.5908 66.0028C31.1423 64.4178 31.3603 62.736 31.231 61.0628C31.0762 59.0392 31.5278 57.0154 32.528 55.2495C33.5283 53.4836 35.0318 52.0557 36.847 51.1478V43.4708Z" fill="#88B8F9"/>
<path d="M119.753 15.8358V34.2588C119.753 35.0653 119.595 35.864 119.286 36.6092C118.978 37.3544 118.525 38.0315 117.955 38.6018C117.385 39.172 116.708 39.6244 115.962 39.9329C115.217 40.2414 114.418 40.4001 113.612 40.3998H82.906L78.162 45.1438C78.0477 45.2596 77.9015 45.3386 77.742 45.3708C77.5826 45.403 77.4172 45.387 77.2669 45.3248C77.1166 45.2625 76.9883 45.1568 76.8984 45.0213C76.8084 44.8858 76.7609 44.7265 76.762 44.5638V15.8358C76.7617 15.0293 76.9204 14.2306 77.2289 13.4855C77.5374 12.7403 77.9898 12.0632 78.5601 11.4929C79.1303 10.9226 79.8074 10.4703 80.5526 10.1617C81.2978 9.85322 82.0965 9.69456 82.903 9.69482H113.609C114.416 9.69456 115.214 9.85322 115.959 10.1617C116.705 10.4703 117.382 10.9226 117.952 11.4929C118.522 12.0632 118.975 12.7403 119.283 13.4855C119.592 14.2306 119.75 15.0293 119.75 15.8358" fill="#EE7231"/>
<path d="M89.047 6.62391V25.0479C89.0467 25.8544 89.2054 26.6531 89.5139 27.3983C89.8224 28.1435 90.2748 28.8205 90.8451 29.3908C91.4154 29.9611 92.0925 30.4135 92.8376 30.722C93.5828 31.0305 94.3815 31.1892 95.188 31.1889H125.894L130.638 35.9329C130.752 36.0487 130.899 36.1277 131.058 36.1599C131.217 36.1921 131.383 36.1761 131.533 36.1138C131.683 36.0516 131.812 35.9459 131.902 35.8104C131.992 35.6749 132.039 35.5156 132.038 35.3529V6.62391C132.038 5.81714 131.879 5.01822 131.571 4.27285C131.262 3.52747 130.809 2.85026 130.239 2.27992C129.668 1.70959 128.991 1.25732 128.245 0.948971C127.5 0.640626 126.701 0.482255 125.894 0.482912H95.188C94.3815 0.482649 93.5828 0.641312 92.8376 0.949833C92.0925 1.25835 91.4154 1.71069 90.8451 2.28098C90.2748 2.85128 89.8224 3.52836 89.5139 4.27354C89.2054 5.01872 89.0467 5.81739 89.047 6.62391Z" fill="#F8CF6D"/>
<path d="M113.612 15.8359C113.612 15.2285 113.432 14.6348 113.094 14.1297C112.757 13.6247 112.277 13.2311 111.716 12.9987C111.155 12.7662 110.538 12.7054 109.942 12.8239C109.346 12.9424 108.799 13.2349 108.369 13.6644C107.94 14.0939 107.647 14.6411 107.529 15.2368C107.41 15.8325 107.471 16.45 107.704 17.0111C107.936 17.5723 108.33 18.0519 108.835 18.3893C109.34 18.7268 109.934 18.9069 110.541 18.9069C111.355 18.9066 112.136 18.583 112.712 18.0071C113.288 17.4313 113.612 16.6503 113.612 15.8359Z" fill="#FFFEFF"/>
<path d="M95.188 15.8359C95.188 16.4433 95.3681 17.037 95.7055 17.542C96.043 18.0471 96.5226 18.4407 97.0838 18.6731C97.6449 18.9056 98.2624 18.9664 98.8581 18.8479C99.4538 18.7294 100.001 18.4369 100.431 18.0074C100.86 17.5779 101.152 17.0307 101.271 16.435C101.389 15.8393 101.329 15.2218 101.096 14.6607C100.864 14.0995 100.47 13.6199 99.9651 13.2824C99.4601 12.945 98.8664 12.7649 98.259 12.7649C97.4446 12.7652 96.6636 13.0888 96.0878 13.6647C95.5119 14.2405 95.1883 15.0215 95.188 15.8359Z" fill="#FFFEFF"/>
<path d="M119.753 15.8359C119.753 16.4433 119.933 17.037 120.271 17.542C120.608 18.0471 121.088 18.4407 121.649 18.6731C122.21 18.9056 122.827 18.9664 123.423 18.8479C124.019 18.7294 124.566 18.4369 124.996 18.0074C125.425 17.5779 125.718 17.0307 125.836 16.435C125.955 15.8393 125.894 15.2218 125.661 14.6607C125.429 14.0995 125.035 13.6199 124.53 13.2824C124.025 12.945 123.431 12.7649 122.824 12.7649C122.01 12.7652 121.229 13.0888 120.653 13.6647C120.077 14.2405 119.753 15.0215 119.753 15.8359Z" fill="#FFFEFF"/>
<path d="M147.388 132.518H49.129C48.3146 132.518 47.5336 132.194 46.9578 131.618C46.3819 131.042 46.0582 130.261 46.058 129.447V123.306C46.0582 122.491 46.3819 121.711 46.9578 121.135C47.5336 120.559 48.3146 120.235 49.129 120.235H147.388C148.202 120.235 148.983 120.559 149.559 121.135C150.135 121.711 150.459 122.491 150.459 123.306V129.447C150.459 130.261 150.135 131.042 149.559 131.618C148.983 132.194 148.202 132.518 147.388 132.518Z" fill="#2F79F0"/>
</g>
</svg>
