<svg width="85" height="135" viewBox="0 0 85 135" fill="none" xmlns="http://www.w3.org/2000/svg">
<mask id="mask0_2_899" style="mask-type:luminance" maskUnits="userSpaceOnUse" x="0" y="0" width="85" height="135">
<path d="M85 0H0V135H85V0Z" fill="white"/>
</mask>
<g mask="url(#mask0_2_899)">
<path d="M33.769 14.982C33.4308 14.9812 33.096 14.9138 32.7838 14.7836C32.4717 14.6534 32.1882 14.463 31.9496 14.2232C31.7111 13.9834 31.5221 13.699 31.3934 13.3862C31.2648 13.0733 31.1991 12.7382 31.2 12.4L31.217 2.577C31.2165 1.89476 31.4867 1.24019 31.9684 0.757026C32.4501 0.273859 33.1038 0.00158948 33.786 0C34.1243 0.00104877 34.459 0.0687254 34.7711 0.199164C35.0831 0.329602 35.3665 0.520247 35.6048 0.760207C35.8432 1.00017 36.032 1.28474 36.1604 1.59767C36.2887 1.9106 36.3542 2.24576 36.353 2.584L36.336 12.407C36.3358 13.0892 36.0649 13.7434 35.5829 14.2261C35.101 14.7088 34.4472 14.9807 33.765 14.982" fill="#1A1A1A"/>
<path d="M65.069 32.6941L55.278 32.6771C54.6027 32.6638 53.9595 32.3862 53.4866 31.9039C53.0137 31.4216 52.7488 30.773 52.7488 30.0976C52.7488 29.4221 53.0137 28.7736 53.4866 28.2913C53.9595 27.809 54.6027 27.5314 55.278 27.5181L65.069 27.5351C65.7444 27.5484 66.3875 27.826 66.8604 28.3083C67.3333 28.7906 67.5982 29.4391 67.5982 30.1146C67.5982 30.79 67.3333 31.4386 66.8604 31.9209C66.3875 32.4032 65.7444 32.6808 65.069 32.6941Z" fill="#1A1A1A"/>
<path d="M48.822 21.191C48.4832 21.1914 48.1477 21.1245 47.8349 20.9942C47.5221 20.8639 47.2384 20.6728 47 20.432C46.5187 19.9466 46.2491 19.2903 46.2502 18.6067C46.2513 17.9231 46.5231 17.2678 47.006 16.784L53.942 9.84996C54.4267 9.36859 55.0828 9.09948 55.7659 9.10182C56.449 9.10417 57.1032 9.37778 57.5845 9.86246C58.0659 10.3471 58.335 11.0032 58.3327 11.6863C58.3303 12.3694 58.0567 13.0236 57.572 13.505L50.637 20.439C50.399 20.6777 50.1161 20.867 49.8046 20.9961C49.4931 21.1251 49.1592 21.1914 48.822 21.191Z" fill="#1A1A1A"/>
<path d="M18.464 21.031C18.1253 21.0313 17.79 20.9644 17.4774 20.8341C17.1648 20.7038 16.8812 20.5128 16.643 20.272L9.73201 13.314C9.24905 12.831 8.97772 12.176 8.97772 11.493C8.97772 10.81 9.24905 10.155 9.73201 9.67201C10.215 9.18905 10.87 8.91772 11.553 8.91772C12.236 8.91772 12.891 9.18905 13.374 9.67201L20.285 16.63C20.7664 17.1154 21.036 17.7716 21.0349 18.4552C21.0337 19.1389 20.762 19.7942 20.279 20.278C20.0409 20.5167 19.758 20.7061 19.4465 20.8351C19.1351 20.9642 18.8012 21.0314 18.464 21.031Z" fill="#1A1A1A"/>
<path d="M12.362 32.6941L2.57102 32.6771C1.89569 32.6638 1.2525 32.3862 0.779604 31.9039C0.306705 31.4216 0.0418091 30.773 0.0418091 30.0976C0.0418091 29.4221 0.306705 28.7736 0.779604 28.2913C1.2525 27.809 1.89569 27.5314 2.57102 27.5181L12.362 27.5351C13.0373 27.5484 13.6805 27.826 14.1534 28.3083C14.6263 28.7906 14.8912 29.4391 14.8912 30.1146C14.8912 30.79 14.6263 31.4386 14.1534 31.9209C13.6805 32.4032 13.0373 32.6808 12.362 32.6941Z" fill="#1A1A1A"/>
<path d="M75.726 66.0531C75.1328 66.022 74.5395 66.1121 73.9822 66.318C73.425 66.5239 72.9156 66.8412 72.4851 67.2505C72.0546 67.6598 71.712 68.1527 71.4784 68.6988C71.2447 69.245 71.1248 69.8331 71.126 70.4271V78.0671C71.1268 78.4053 71.061 78.7404 70.9322 79.0532C70.8035 79.366 70.6144 79.6503 70.3757 79.89C70.1371 80.1297 69.8535 80.32 69.5413 80.4501C69.2291 80.5802 68.8943 80.6474 68.556 80.6481C68.2179 80.6476 67.8831 80.5805 67.5709 80.4506C67.2587 80.3207 66.9751 80.1306 66.7364 79.8911C66.4977 79.6516 66.3084 79.3674 66.1795 79.0548C66.0506 78.7422 65.9845 78.4073 65.985 78.0691V63.8801C65.9862 63.3059 65.8743 62.7371 65.6556 62.2062C65.4369 61.6753 65.1157 61.1927 64.7105 60.786C64.3052 60.3792 63.8238 60.0563 63.2937 59.8357C62.7636 59.6151 62.1952 59.501 61.621 59.5001C60.4622 59.5038 59.3521 59.967 58.5344 60.7882C57.7166 61.6093 57.258 62.7212 57.259 63.8801V78.0691C57.2598 78.4073 57.194 78.7424 57.0652 79.0552C56.9365 79.368 56.7474 79.6523 56.5087 79.892C56.2701 80.1317 55.9865 80.322 55.6743 80.4521C55.3621 80.5822 55.0273 80.6494 54.689 80.6501C54.3509 80.6496 54.0161 80.5825 53.7039 80.4526C53.3917 80.3227 53.1081 80.1326 52.8694 79.8931C52.6307 79.6536 52.4414 79.3694 52.3125 79.0568C52.1836 78.7442 52.1175 78.4093 52.118 78.0711V63.8821V58.2881C52.1196 57.129 51.6608 56.0168 50.8424 55.1959C50.024 54.3751 48.9131 53.913 47.754 53.9111C47.1799 53.9122 46.6117 54.0263 46.0817 54.247C45.5517 54.4677 45.0704 54.7906 44.6653 55.1973C44.2601 55.6041 43.939 56.0866 43.7204 56.6175C43.5018 57.1483 43.3899 57.717 43.391 58.2911L43.398 77.9371C43.3987 78.2753 43.3327 78.6102 43.2039 78.9229C43.0751 79.2356 42.886 79.5198 42.6474 79.7594C42.4087 79.9989 42.1252 80.1892 41.8131 80.3192C41.5009 80.4492 41.1662 80.5164 40.828 80.5171C40.4899 80.5166 40.1551 80.4495 39.8429 80.3196C39.5307 80.1897 39.2471 79.9996 39.0084 79.7601C38.7697 79.5206 38.5804 79.2364 38.4515 78.9238C38.3226 78.6112 38.2565 78.2763 38.257 77.9381L38.235 34.0101C38.2358 33.4297 38.1209 32.855 37.8972 32.3195C37.6735 31.784 37.3453 31.2984 36.9319 30.8911C36.5185 30.4837 36.0282 30.1628 35.4894 29.947C34.9507 29.7312 34.3743 29.6248 33.794 29.6341C32.6346 29.6765 31.5377 30.1701 30.7369 31.0095C29.9361 31.849 29.4948 32.968 29.507 34.1281L29.526 91.3161C29.5289 91.8883 29.3408 92.445 28.9915 92.8982C28.6422 93.3514 28.1516 93.675 27.5976 93.8178C27.0435 93.9606 26.4576 93.9145 25.9328 93.6867C25.4079 93.4588 24.9741 93.0624 24.7 92.5601L14.77 74.4441L14.73 74.3681C14.1969 73.3499 13.2839 72.5829 12.189 72.2335C11.094 71.8841 9.90551 71.9804 8.88113 72.5015C7.85675 73.0226 7.0791 73.9266 6.71685 75.0174C6.3546 76.1081 6.43695 77.2977 6.94603 78.3281C6.9587 78.3528 6.97103 78.3778 6.98303 78.4031C13.737 92.9161 27.055 121.29 29.113 124.803C29.9302 126.376 31.2158 127.655 32.792 128.465C34.422 129.258 36.2075 129.68 38.02 129.7C43.093 129.777 60.078 130 65.635 129.663C65.721 129.658 65.806 129.652 65.89 129.645C67.7569 129.465 69.5155 128.686 70.9033 127.425C72.2911 126.163 73.2336 124.486 73.59 122.645L75.871 111.162C78.5243 97.7866 79.8597 84.1832 79.858 70.5471C79.8757 69.4122 79.4567 68.3139 78.6878 67.4791C77.9188 66.6442 76.8586 66.1366 75.726 66.0611" fill="white"/>
<path d="M75.987 60.8999C74.2352 60.8045 72.4915 61.1996 70.952 62.0409C70.5298 59.8752 69.3686 57.9234 67.6669 56.5189C65.9651 55.1145 63.8284 54.3446 61.622 54.3409C59.9572 54.3394 58.3217 54.779 56.882 55.6149C56.3066 53.6378 55.1061 51.9004 53.4603 50.663C51.8145 49.4256 49.8121 48.7547 47.753 48.7509C46.2341 48.7482 44.7371 49.1122 43.389 49.8119L43.384 34.0039C43.3857 32.7399 43.1358 31.4881 42.6487 30.3217C42.1615 29.1553 41.447 28.0975 40.5468 27.2102C39.6466 26.3228 38.5787 25.6236 37.4054 25.1533C36.2321 24.683 34.9769 24.451 33.713 24.4709C32.4651 24.4912 31.2339 24.7608 30.0917 25.2638C28.9495 25.7668 27.9195 26.4931 27.062 27.3999C25.3242 29.2092 24.3563 31.6222 24.362 34.1309L24.378 81.2689L19.3 71.9919C18.7334 70.8784 17.953 69.8873 17.0034 69.0754C16.0539 68.2634 14.9536 67.6464 13.7656 67.2597C11.3663 66.4786 8.7549 66.6826 6.506 67.8269C5.39246 68.3935 4.40141 69.1739 3.58946 70.1235C2.7775 71.0731 2.16053 72.1733 1.77378 73.3613C0.992688 75.7606 1.19672 78.372 2.341 80.6209C3.351 82.7919 22 122.849 24.683 127.416C26.0074 129.854 28.0421 131.832 30.517 133.087C32.8315 134.218 35.3681 134.821 37.944 134.854C41.724 134.911 48.592 134.999 54.802 134.999C59.369 134.999 63.581 134.951 65.945 134.808C66.072 134.8 66.198 134.791 66.322 134.781C69.3095 134.533 72.1292 133.297 74.336 131.268C76.5418 129.247 78.0477 126.577 78.636 123.644L80.917 112.161C83.6351 98.453 85.0026 84.5117 85 70.5369C85.0201 68.0812 84.0959 65.7117 82.4185 63.9181C80.741 62.1245 78.4385 61.044 75.987 60.8999ZM75.871 111.153L73.59 122.637C73.2335 124.478 72.2911 126.155 70.9033 127.417C69.5155 128.678 67.7569 129.457 65.89 129.637C65.806 129.644 65.722 129.65 65.635 129.655C60.078 129.991 43.093 129.768 38.02 129.692C36.2075 129.672 34.4219 129.25 32.792 128.457C31.2158 127.647 29.9302 126.367 29.113 124.795C27.054 121.286 13.737 92.9119 6.983 78.3949C6.971 78.3696 6.95867 78.3446 6.946 78.3199C6.67799 77.808 6.51422 77.2481 6.46418 76.6724C6.41414 76.0968 6.47883 75.517 6.65449 74.9665C6.83016 74.4161 7.11331 73.906 7.48755 73.4658C7.86178 73.0255 8.31965 72.664 8.83463 72.402C9.34962 72.14 9.91147 71.9828 10.4876 71.9395C11.0638 71.8962 11.6428 71.9677 12.1912 72.1498C12.7395 72.3319 13.2463 72.6211 13.6821 73.0004C14.1179 73.3798 14.4741 73.8419 14.73 74.3599C14.7433 74.3859 14.7567 74.4116 14.77 74.4369L24.7 92.5599C24.9745 93.0611 25.4083 93.4566 25.9328 93.6837C26.4572 93.9108 27.0424 93.9566 27.5958 93.8139C28.1492 93.6712 28.6392 93.3481 28.9884 92.8957C29.3376 92.4433 29.5261 91.8874 29.524 91.3159L29.505 34.1279C29.4928 32.9678 29.934 31.8488 30.7348 31.0093C31.5356 30.1699 32.6326 29.6763 33.792 29.6339C34.3723 29.6246 34.9486 29.731 35.4874 29.9468C36.0261 30.1626 36.5165 30.4835 36.9299 30.8909C37.3433 31.2982 37.6714 31.7838 37.8952 32.3193C38.1189 32.8548 38.2337 33.4295 38.233 34.0099L38.241 58.2949L38.248 77.9409C38.2475 78.2791 38.3136 78.614 38.4425 78.9266C38.5714 79.2392 38.7606 79.5234 38.9994 79.7629C39.2381 80.0024 39.5217 80.1925 39.8339 80.3224C40.1461 80.4523 40.4808 80.5194 40.819 80.5199C41.1572 80.5192 41.492 80.452 41.8043 80.3219C42.1165 80.1918 42.4 80.0015 42.6387 79.7618C42.8773 79.5221 43.0665 79.2378 43.1952 78.925C43.3239 78.6122 43.3898 78.2771 43.389 77.9389L43.382 58.2919C43.3808 57.7178 43.4927 57.1491 43.7114 56.6183C43.93 56.0875 44.2511 55.6049 44.6562 55.1982C45.0614 54.7914 45.5427 54.4685 46.0727 54.2478C46.6026 54.0271 47.1709 53.913 47.745 53.9119C48.9041 53.9138 50.015 54.3759 50.8334 55.1967C51.6517 56.0176 52.1106 57.1298 52.109 58.2889V63.8819V78.0709C52.1085 78.4091 52.1746 78.744 52.3035 79.0566C52.4324 79.3692 52.6216 79.6534 52.8604 79.8929C53.0991 80.1324 53.3827 80.3225 53.6949 80.4524C54.0071 80.5823 54.3418 80.6494 54.68 80.6499C55.0182 80.6493 55.353 80.582 55.6653 80.4519C55.9775 80.3218 56.261 80.1315 56.4997 79.8918C56.7383 79.6521 56.9275 79.3678 57.0562 79.055C57.1849 78.7422 57.2508 78.4071 57.25 78.0689V63.8799C57.2489 62.7197 57.7087 61.6065 58.5282 60.7851C59.3476 59.9638 60.4598 59.5015 61.62 59.4999C62.7791 59.5018 63.89 59.9639 64.7084 60.7847C65.5267 61.6056 65.9856 62.7178 65.984 63.8769V78.0659C65.9835 78.4041 66.0496 78.739 66.1785 79.0516C66.3074 79.3642 66.4966 79.6484 66.7354 79.8879C66.9741 80.1274 67.2577 80.3175 67.5699 80.4474C67.8821 80.5773 68.2168 80.6444 68.555 80.6449C68.8932 80.6442 69.2279 80.577 69.54 80.447C69.8522 80.317 70.1357 80.1268 70.3743 79.8872C70.613 79.6476 70.8021 79.3634 70.9309 79.0507C71.0597 78.738 71.1257 78.4031 71.125 78.0649V70.4249C71.1238 69.8309 71.2437 69.2428 71.4773 68.6966C71.711 68.1505 72.0535 67.6577 72.484 67.2483C72.9145 66.839 73.4239 66.5217 73.9812 66.3158C74.5384 66.1099 75.1318 66.0198 75.725 66.0509C76.8575 66.1264 77.9178 66.634 78.6867 67.4689C79.4557 68.3037 79.8746 69.402 79.857 70.5369C79.8586 84.173 78.5232 97.7764 75.87 111.152" fill="#1A1A1A"/>
</g>
</svg>
