<svg width="172" height="191" viewBox="0 0 172 191" fill="none" xmlns="http://www.w3.org/2000/svg">
<path d="M83.3599 41.396C94.7828 41.396 104.043 32.1292 104.043 20.698C104.043 9.26681 94.7828 0 83.3599 0C71.937 0 62.6769 9.26681 62.6769 20.698C62.6769 32.1292 71.937 41.396 83.3599 41.396Z" fill="#88B8F9"/>
<path d="M107.001 127.143H59.7228V121.229L62.6778 47.3091H104.043L106.998 121.229L107.001 127.143Z" fill="#2F79F0"/>
<path d="M70.0639 125.665L68.5869 180.366" stroke="#2F79F0" stroke-width="20.69" stroke-linecap="round" stroke-linejoin="round"/>
<path d="M96.6559 125.665L98.1329 180.366" stroke="#2F79F0" stroke-width="20.69" stroke-linecap="round" stroke-linejoin="round"/>
<path d="M101.088 56.179L121.771 79.834L148.363 70.964" stroke="#2F79F0" stroke-width="17.734" stroke-linecap="round" stroke-linejoin="round"/>
<path d="M65.6319 56.179L44.9489 79.834L18.3569 70.964" stroke="#2F79F0" stroke-width="17.734" stroke-linecap="round" stroke-linejoin="round"/>
<path d="M98.1329 47.3091L83.3599 82.7911L68.5869 47.3091H98.1329Z" fill="#FFFEFF"/>
<path d="M12.8149 46.2861V42.3391" stroke="#EE7231" stroke-width="5.914" stroke-linecap="round" stroke-linejoin="round"/>
<path d="M11.8218 44.312H13.8068C14.9713 44.3119 16.1245 44.5411 17.2004 44.9867C18.2763 45.4322 19.2539 46.0854 20.0774 46.9087C20.9009 47.7321 21.5541 48.7097 21.9998 49.7855C22.4454 50.8614 22.6748 52.0145 22.6748 53.179V56.152H2.95483V53.179C2.95483 50.8273 3.88903 48.572 5.55192 46.9091C7.2148 45.2462 9.47016 44.312 11.8218 44.312Z" fill="#F8CF6D"/>
<path d="M22.6739 56.1531L21.3529 71.9391L21.0189 75.8861L20.9979 76.2231C20.9167 77.2077 20.468 78.1257 19.741 78.7945C19.0139 79.4634 18.0618 79.8342 17.0739 79.8331H8.55586C7.56794 79.8342 6.61579 79.4634 5.88874 78.7945C5.16169 78.1257 4.71299 77.2077 4.63186 76.2231L4.61086 75.8861L4.27386 71.9391L2.95386 56.1531H22.6739Z" fill="#F8CF6D"/>
<path d="M2.95483 56.1531H22.6748" stroke="#EE7231" stroke-width="5.909" stroke-linecap="round" stroke-linejoin="round"/>
<path d="M21.3539 71.9399L21.0189 75.8869H4.61186L4.27686 71.9399H21.3539Z" fill="#EE7231"/>
<path d="M162.276 36.584L153.354 77.974H171.201L162.276 36.584Z" fill="#EE7231"/>
<path d="M162.277 36.584L153.352 77.975H129.836L136.996 44.757H156.109L162.277 36.584Z" fill="#F8CF6D"/>
<path d="M162.277 36.584L156.11 44.757H132.594L138.757 36.584H162.277Z" fill="#EE7231"/>
<path d="M140.314 58.4181H151.155C151.578 58.4177 151.987 58.2694 152.312 57.9989C152.637 57.7285 152.857 57.3528 152.934 56.9371L153.634 53.1671C153.682 52.9059 153.673 52.6372 153.606 52.3801C153.539 52.123 153.416 51.8837 153.246 51.6794C153.077 51.475 152.864 51.3106 152.623 51.1977C152.383 51.0848 152.121 51.0262 151.855 51.0261H141.115C140.7 51.0261 140.298 51.1685 139.976 51.4295C139.654 51.6906 139.431 52.0544 139.345 52.4601L138.545 56.2301C138.489 56.4938 138.492 56.7667 138.555 57.0288C138.618 57.2909 138.739 57.5357 138.908 57.7454C139.078 57.955 139.292 58.1242 139.535 58.2405C139.778 58.3569 140.044 58.4176 140.314 58.4181Z" fill="#EE7231"/>
<path d="M162.277 72.557C162.065 72.557 161.861 72.4727 161.711 72.3227C161.561 72.1727 161.477 71.9692 161.477 71.757V60.168C161.477 59.9549 161.561 59.7505 161.712 59.5998C161.863 59.4492 162.067 59.3645 162.28 59.3645C162.493 59.3645 162.698 59.4492 162.848 59.5998C162.999 59.7505 163.084 59.9549 163.084 60.168V71.753C163.084 71.859 163.064 71.964 163.023 72.062C162.983 72.16 162.924 72.249 162.848 72.3238C162.773 72.3986 162.684 72.4577 162.586 72.4978C162.488 72.5378 162.383 72.5579 162.277 72.557Z" fill="#DB527D"/>
<path d="M171.95 78.246L171.965 78.216V78.195C171.986 78.1219 171.997 78.0462 171.998 77.97V77.929C171.996 77.8874 171.991 77.8459 171.983 77.805L163.069 36.445V36.43V36.412L163.057 36.388C163.047 36.3315 163.029 36.2766 163.004 36.225L162.998 36.219L162.974 36.186L162.933 36.124C162.911 36.0881 162.885 36.0546 162.856 36.024L162.812 35.983L162.756 35.939C162.724 35.9157 162.69 35.894 162.656 35.874L162.623 35.85L162.588 35.841L162.538 35.82C162.497 35.8092 162.456 35.8012 162.414 35.796C162.384 35.79 162.355 35.784 162.325 35.781H162.287H138.757C138.633 35.7807 138.51 35.8094 138.399 35.8648C138.287 35.9202 138.191 36.0007 138.116 36.1L131.953 44.273C131.861 44.3919 131.805 44.5342 131.79 44.6837C131.775 44.8332 131.803 44.9838 131.87 45.1183C131.937 45.2528 132.04 45.3657 132.168 45.4442C132.296 45.5227 132.444 45.5635 132.594 45.562H136.001L129.051 77.806C129.025 77.9231 129.025 78.0447 129.053 78.1615C129.081 78.2782 129.135 78.3872 129.211 78.48C129.286 78.5733 129.382 78.6486 129.49 78.7005C129.598 78.7524 129.717 78.7795 129.837 78.78H153.353H171.201C171.278 78.779 171.355 78.7672 171.429 78.745L171.485 78.724C171.543 78.7023 171.598 78.6745 171.65 78.641L171.685 78.617C171.738 78.5787 171.786 78.5329 171.827 78.481L171.842 78.457L171.869 78.416C171.902 78.3623 171.929 78.3054 171.95 78.246ZM162.276 59.361C162.063 59.3623 161.859 59.448 161.709 59.5993C161.559 59.7505 161.475 59.955 161.476 60.168V71.333L154.576 76.144L159.401 53.716L162.277 40.4L169.977 76.139L163.077 71.328V60.168C163.078 60.0624 163.058 59.9576 163.018 59.8597C162.978 59.7618 162.919 59.6728 162.845 59.5978C162.771 59.5228 162.682 59.4632 162.585 59.4226C162.487 59.3819 162.382 59.361 162.277 59.361H162.276ZM139.156 37.389H160.663L155.708 43.953H134.208L139.156 37.389ZM137.646 45.562H156.11C156.234 45.5623 156.357 45.5336 156.468 45.4782C156.579 45.4229 156.676 45.3423 156.751 45.243L160.719 39.983L157.664 54.158L152.701 77.17H130.833L137.646 45.562ZM155.915 77.17L162.276 72.735L168.637 77.17H155.915Z" fill="#F8CF6D"/>
<path d="M153.726 57.0839L154.426 53.3139C154.496 52.9365 154.483 52.5481 154.386 52.1764C154.29 51.8047 154.112 51.459 153.867 51.1636C153.621 50.8683 153.314 50.6307 152.966 50.4678C152.618 50.3049 152.239 50.2206 151.855 50.2209H141.115C140.516 50.2229 139.936 50.4296 139.471 50.8067C139.006 51.1838 138.684 51.7086 138.559 52.2939L137.759 56.0609C137.678 56.442 137.683 56.8362 137.774 57.215C137.865 57.5938 138.039 57.9475 138.284 58.2504C138.529 58.5533 138.838 58.7977 139.189 58.9658C139.541 59.1339 139.925 59.2214 140.315 59.2219H151.156C151.766 59.2215 152.358 59.0075 152.827 58.617C153.296 58.2266 153.614 57.6842 153.726 57.0839ZM152.846 53.0209L152.146 56.7879C152.103 57.0189 151.98 57.2276 151.799 57.3777C151.618 57.5278 151.391 57.61 151.156 57.6099H140.314C140.164 57.6096 140.016 57.5759 139.881 57.5112C139.746 57.4466 139.627 57.3527 139.533 57.2363C139.439 57.12 139.372 56.9841 139.337 56.8386C139.301 56.693 139.299 56.5415 139.33 56.3949L140.13 52.6279C140.177 52.4021 140.301 52.1994 140.48 52.0538C140.659 51.9082 140.883 51.8285 141.114 51.8279H151.854C152.002 51.8281 152.148 51.8608 152.282 51.9237C152.415 51.9866 152.534 52.0782 152.628 52.1919C152.723 52.3057 152.791 52.4388 152.828 52.5819C152.865 52.725 152.871 52.8746 152.844 53.0199L152.846 53.0209Z" fill="#F8CF6D"/>
</svg>
