<svg width="194" height="197" viewBox="0 0 194 197" fill="none" xmlns="http://www.w3.org/2000/svg">
<path d="M180.471 61.561H172.962V67.714H180.471V61.561Z" fill="#2F79F0"/>
<mask id="mask0_2_683" style="mask-type:luminance" maskUnits="userSpaceOnUse" x="0" y="0" width="194" height="197">
<path d="M194 0H0V197H194V0Z" fill="white"/>
</mask>
<g mask="url(#mask0_2_683)">
<path d="M48.9 153.433C48.8431 153.034 48.7072 152.65 48.5004 152.303C48.2936 151.957 48.02 151.656 47.6954 151.416C47.3709 151.177 47.002 151.004 46.6101 150.909C46.2183 150.813 45.8113 150.797 45.413 150.86C44.6089 150.987 43.8881 151.428 43.4087 152.086C42.9293 152.744 42.7305 153.565 42.856 154.369L44.196 163.135H16.977L18.317 154.369C18.3785 153.972 18.3612 153.567 18.2661 153.177C18.171 152.787 18 152.419 17.7628 152.095C17.5256 151.771 17.227 151.497 16.8838 151.288C16.5407 151.079 16.1599 150.94 15.763 150.879C15.3661 150.818 14.9611 150.835 14.5709 150.93C14.1807 151.025 13.8131 151.196 13.4891 151.433C13.165 151.67 12.8908 151.969 12.6821 152.312C12.4735 152.655 12.3345 153.036 12.273 153.433L6.154 193.448C6.09255 193.845 6.10986 194.25 6.20494 194.64C6.30003 195.03 6.47104 195.398 6.7082 195.722C6.94536 196.046 7.24403 196.32 7.58716 196.529C7.93029 196.738 8.31115 196.877 8.708 196.938C9.10486 196.999 9.50993 196.982 9.9001 196.887C10.2903 196.792 10.6579 196.621 10.982 196.384C11.306 196.147 11.5802 195.848 11.7889 195.505C11.9975 195.162 12.1365 194.781 12.198 194.384L13.682 184.684H47.494L48.978 194.384C49.0395 194.781 49.1785 195.162 49.3871 195.505C49.5958 195.848 49.87 196.147 50.1941 196.384C50.5181 196.621 50.8857 196.792 51.2759 196.887C51.6661 196.982 52.0711 196.999 52.468 196.938C52.8649 196.877 53.2457 196.738 53.5888 196.529C53.932 196.32 54.2306 196.046 54.4678 195.722C54.705 195.398 54.876 195.03 54.9711 194.64C55.0662 194.25 55.0835 193.845 55.022 193.448L48.9 153.433ZM14.62 178.525L16.033 169.291H45.133L46.543 178.525H14.62Z" fill="#0C3798"/>
<path d="M11.746 144.667L9.35699 84.55C9.31338 83.3221 8.7886 82.1605 7.89595 81.3162C7.0033 80.4718 5.8144 80.0124 4.58593 80.0371C3.35745 80.0617 2.18797 80.5686 1.32995 81.4481C0.471942 82.3276 -0.00575729 83.5093 -9.7658e-06 84.738V92.338L2.77999 151.113C2.8499 152.689 3.52383 154.177 4.66191 155.269C5.79999 156.361 7.31482 156.972 8.89199 156.977H64.235V144.667H11.746Z" fill="#2F79F0"/>
<path d="M61.177 52.326C61.1541 48.7011 60.0583 45.1643 58.0277 42.1614C55.9972 39.1586 53.1229 36.8243 49.7674 35.453C46.4119 34.0816 42.7254 33.7347 39.1729 34.4559C35.6205 35.1771 32.3612 36.9341 29.806 39.5054C27.2509 42.0767 25.5144 45.347 24.8156 48.904C24.1168 52.4609 24.487 56.1451 25.8794 59.4919C27.2719 62.8387 29.6242 65.6983 32.6398 67.7098C35.6554 69.7214 39.1991 70.7949 42.824 70.795C45.2418 70.7875 47.6345 70.3039 49.8654 69.3716C52.0962 68.4394 54.1216 67.0769 55.8259 65.3618C57.5302 63.6468 58.8799 61.6129 59.798 59.3762C60.7162 57.1395 61.1848 54.7438 61.177 52.326Z" fill="#88B8F9"/>
<path d="M177.412 36.936C177.39 33.3109 176.295 29.7735 174.265 26.77C172.235 23.7665 169.361 21.4315 166.006 20.0594C162.65 18.6873 158.964 18.3396 155.411 19.0603C151.858 19.7809 148.598 21.5376 146.043 24.1087C143.487 26.6797 141.75 29.9501 141.051 33.5071C140.352 37.0642 140.722 40.7487 142.114 44.0958C143.506 47.4429 145.859 50.3027 148.874 52.3145C151.89 54.3263 155.434 55.3999 159.059 55.4C161.477 55.3925 163.869 54.9089 166.1 53.9767C168.331 53.0446 170.356 51.6821 172.06 49.9672C173.765 48.2523 175.115 46.2185 176.033 43.9819C176.951 41.7453 177.42 39.3497 177.412 36.932" fill="#88B8F9"/>
<path d="M113.177 0C131.863 0 143.563 20.238 134.589 36.536V46.17H125.015C108.815 55.204 88.707 43.421 88.707 24.624C88.6871 18.1139 91.2539 11.8624 95.8428 7.24465C100.432 2.62686 106.667 0.0209195 113.177 0Z" fill="#EE7231"/>
<path d="M113.177 21.546C112.361 21.546 111.578 21.2217 111.001 20.6445C110.423 20.0672 110.099 19.2843 110.099 18.468C110.099 17.6517 110.423 16.8688 111.001 16.2915C111.578 15.7143 112.361 15.39 113.177 15.39H119.295C120.111 15.39 120.894 15.0657 121.471 14.4885C122.049 13.9112 122.373 13.1283 122.373 12.312C122.373 11.4957 122.049 10.7128 121.471 10.1355C120.894 9.55829 120.111 9.234 119.295 9.234H116.236C116.236 8.42271 115.914 7.64464 115.34 7.07096C114.766 6.49729 113.988 6.175 113.177 6.175C112.366 6.175 111.588 6.49729 111.014 7.07096C110.44 7.64464 110.118 8.42271 110.118 9.234V9.8C108.077 10.5308 106.36 11.9571 105.266 13.8285C104.173 15.6999 103.773 17.8968 104.138 20.0333C104.504 22.1698 105.61 24.1093 107.263 25.5114C108.916 26.9134 111.01 27.6883 113.177 27.7C113.993 27.7 114.776 28.0243 115.353 28.6015C115.931 29.1788 116.255 29.9617 116.255 30.778C116.255 31.5943 115.931 32.3772 115.353 32.9545C114.776 33.5317 113.993 33.856 113.177 33.856H107.059C106.243 33.856 105.46 34.1803 104.883 34.7575C104.305 35.3348 103.981 36.1177 103.981 36.934C103.981 37.7503 104.305 38.5332 104.883 39.1105C105.46 39.6877 106.243 40.012 107.059 40.012H110.118C110.118 40.8233 110.44 41.6014 111.014 42.175C111.588 42.7487 112.366 43.071 113.177 43.071C113.988 43.071 114.766 42.7487 115.34 42.175C115.914 41.6014 116.236 40.8233 116.236 40.012V39.446C118.277 38.7152 119.994 37.2889 121.088 35.4175C122.181 33.5461 122.581 31.3492 122.216 29.2127C121.851 27.0762 120.744 25.1367 119.091 23.7346C117.438 22.3326 115.344 21.5577 113.177 21.546Z" fill="#FFFEFF"/>
<path d="M88.152 98.521L58.261 100.085L53.287 94.357L53.425 92.787C53.8166 88.3206 52.459 83.8767 49.6382 80.3917C46.8174 76.9067 42.7539 74.653 38.3039 74.1054C33.854 73.5579 29.3653 74.7593 25.7838 77.4565C22.2023 80.1537 19.8078 84.1359 19.105 88.564L12.373 131.464C12.1132 133.089 12.2081 134.75 12.6512 136.334C13.0943 137.919 13.8751 139.389 14.94 140.643C16.0048 141.897 17.3285 142.906 18.8201 143.6C20.3117 144.294 21.9358 144.657 23.581 144.664C46.265 144.664 39.001 144.325 55.916 145.964L55.072 190.472C55.0303 192.06 55.6076 193.602 56.682 194.772C57.7563 195.942 59.2434 196.649 60.8292 196.743C62.415 196.837 63.9751 196.31 65.18 195.275C66.3848 194.24 67.14 192.777 67.286 191.195L72.403 138.995C72.591 137.047 72.0484 135.098 70.8805 133.527C69.7126 131.957 68.0028 130.876 66.083 130.495C64.725 130.233 53.156 128.02 50.425 127.5L51.56 114.363C52.825 115.081 54.2899 115.367 55.732 115.176L89.26 110.787C90.8306 110.572 92.2579 109.76 93.2451 108.519C94.2324 107.279 94.7038 105.706 94.5612 104.127C94.4187 102.548 93.6733 101.085 92.4798 100.041C91.2864 98.998 89.7368 98.4545 88.153 98.524" fill="#88B8F9"/>
<path d="M91.765 132.355H79.53V190.837H91.765V132.355Z" fill="#0C3798"/>
<path d="M94.824 190.838V181.6H76.471V190.834H61.177V196.99H110.118V190.834L94.824 190.838Z" fill="#2F79F0"/>
<path d="M122.353 132.355H48.941C48.1273 132.352 47.348 132.026 46.7744 131.449C46.2008 130.872 45.8798 130.091 45.882 129.277V123.121C45.8798 122.307 46.2008 121.526 46.7744 120.949C47.348 120.372 48.1273 120.046 48.941 120.043H122.353C123.167 120.046 123.946 120.372 124.52 120.949C125.093 121.526 125.414 122.307 125.412 123.121V129.277C125.414 130.091 125.093 130.872 124.52 131.449C123.946 132.026 123.167 132.352 122.353 132.355Z" fill="#2F79F0"/>
<path d="M189.189 108.562L164.26 116.562C163.493 116.811 162.685 116.904 161.882 116.837C161.079 116.77 160.297 116.543 159.583 116.171C158.868 115.799 158.235 115.288 157.72 114.668C157.204 114.049 156.818 113.333 156.582 112.562C156.12 111.111 156.212 109.541 156.84 108.154C157.468 106.767 158.587 105.662 159.982 105.052L177.815 97.265L177.015 94.249L158.754 102.221C156.675 103.151 155.009 104.812 154.073 106.889C153.137 108.965 152.996 111.313 153.676 113.487C154.242 115.358 155.396 116.997 156.966 118.161C158.536 119.325 160.439 119.953 162.394 119.951C164.138 119.951 163.673 119.969 180.194 114.688C180.57 122.001 180.894 110.129 177.41 191.146C177.337 192.72 176.661 194.205 175.522 195.293C174.383 196.381 172.868 196.988 171.293 196.988C169.717 196.988 168.202 196.381 167.063 195.293C165.924 194.205 165.248 192.72 165.175 191.146L162.269 132.356H155.845L152.939 191.146C152.866 192.72 152.19 194.205 151.051 195.293C149.912 196.381 148.397 196.988 146.822 196.988C145.246 196.988 143.731 196.381 142.592 195.293C141.453 194.205 140.777 192.72 140.704 191.146C137.033 105.826 137.232 127.905 139.236 89.725C134.379 96.825 135.082 95.783 134.495 96.712C133.56 98.1213 132.152 99.1502 130.526 99.613C128.899 100.076 127.161 99.9421 125.624 99.236L89.41 82.645C87.9623 81.9786 86.8288 80.7777 86.2471 79.294C85.6654 77.8102 85.6807 76.1589 86.2897 74.6861C86.8988 73.2134 88.0543 72.0336 89.5141 71.3942C90.9739 70.7547 92.6245 70.7052 94.12 71.256L124.739 82.956L132.753 66.796C133.475 65.2841 134.599 63.9997 136.002 63.0827C137.404 62.1657 139.031 61.6515 140.706 61.596C140.706 61.596 153.186 74.647 159.059 74.647C163.978 74.647 174.824 65.124 178.059 61.873C179.231 61.5695 180.451 61.5 181.649 61.6684C182.848 61.8369 184.001 62.24 185.044 62.8546C186.087 63.4693 186.998 64.2835 187.726 65.2506C188.453 66.2178 188.983 67.3189 189.285 68.491C189.569 70.064 188.471 62.572 193.873 100.102C194.809 106.221 190.484 108.154 189.193 108.567" fill="#2F79F0"/>
<path d="M177.412 61.56L159.059 98.5L140.706 61.56H177.412Z" fill="#FFFEFF"/>
<path d="M171.295 61.56V73.873C171.298 74.4262 171.15 74.9698 170.867 75.4455C170.585 75.9212 170.179 76.3112 169.691 76.5737C169.204 76.8361 168.655 76.9612 168.103 76.9356C167.55 76.9099 167.015 76.7345 166.554 76.428L159.06 71.411L151.566 76.428C151.105 76.7348 150.57 76.9106 150.017 76.9364C149.465 76.9622 148.915 76.8372 148.428 76.5746C147.941 76.3121 147.534 75.922 147.252 75.4461C146.97 74.9702 146.822 74.4264 146.825 73.873V61.56C146.821 61.0064 146.968 60.4621 147.251 59.9858C147.533 59.5095 147.94 59.119 148.427 58.8564C148.914 58.5937 149.464 58.4688 150.017 58.4949C150.57 58.5211 151.106 58.6975 151.566 59.005L159.06 64.022L166.554 59.005C167.014 58.6975 167.55 58.5211 168.103 58.4949C168.656 58.4688 169.206 58.5937 169.693 58.8564C170.18 59.119 170.587 59.5095 170.869 59.9858C171.152 60.4621 171.299 61.0064 171.295 61.56Z" fill="#0C3798"/>
<path d="M107.133 90.863L89.217 94.874C88.824 94.961 88.4177 94.9695 88.0213 94.8991C87.625 94.8287 87.2465 94.6807 86.9074 94.4637C86.5684 94.2467 86.2756 93.9649 86.0457 93.6344C85.8159 93.3039 85.6535 92.9313 85.568 92.538L80.252 68.5C80.0752 67.7053 80.2202 66.8729 80.6553 66.1848C81.0904 65.4968 81.7802 65.0089 82.574 64.828L100.49 60.817C100.883 60.73 101.29 60.7214 101.686 60.7918C102.083 60.8622 102.462 61.0101 102.801 61.2271C103.14 61.4441 103.433 61.7259 103.663 62.0564C103.893 62.3869 104.056 62.7595 104.142 63.153L109.455 87.189C109.632 87.9837 109.488 88.8164 109.052 89.5046C108.617 90.1928 107.927 90.6806 107.133 90.861" fill="#F8CF6D"/>
<path d="M96.8398 58.4988L84.895 61.157L86.2325 67.167L98.1773 64.5088L96.8398 58.4988Z" fill="#EE7231"/>
</g>
</svg>
