<svg width="111" height="184" viewBox="0 0 111 184" fill="none" xmlns="http://www.w3.org/2000/svg">
<mask id="mask0_2_711" style="mask-type:luminance" maskUnits="userSpaceOnUse" x="0" y="0" width="111" height="184">
<path d="M111 0H0V184H111V0Z" fill="white"/>
</mask>
<g mask="url(#mask0_2_711)">
<path d="M96.61 184H14.39C12.7397 184.002 11.1564 183.348 9.98828 182.182C8.82014 181.016 8.16287 179.434 8.16101 177.784V6.217C8.1618 5.39979 8.32354 4.59073 8.637 3.83602C8.95047 3.08131 9.40951 2.39574 9.98793 1.81843C10.5663 1.24113 11.2528 0.783411 12.0081 0.471404C12.7634 0.159397 13.5728 -0.000785416 14.39 2.89555e-06H96.61C97.4272 -0.000785416 98.2366 0.159397 98.9919 0.471404C99.7472 0.783411 100.434 1.24113 101.012 1.81843C101.591 2.39574 102.05 3.08131 102.363 3.83602C102.676 4.59073 102.838 5.39979 102.839 6.217V177.784C102.838 178.601 102.676 179.41 102.363 180.165C102.05 180.919 101.59 181.605 101.012 182.182C100.434 182.759 99.7471 183.217 98.9918 183.529C98.2365 183.841 97.4272 184.001 96.61 184Z" fill="#0C3798"/>
<path d="M96.6099 180.271H14.3899C14.0631 180.271 13.7394 180.207 13.4372 180.083C13.1351 179.958 12.8605 179.775 12.6291 179.544C12.3977 179.313 12.214 179.039 12.0886 178.737C11.9631 178.435 11.8983 178.112 11.8979 177.785V6.217C11.8982 5.89005 11.9629 5.56636 12.0883 5.26442C12.2137 4.96248 12.3973 4.68819 12.6287 4.45724C12.8601 4.22629 13.1348 4.04319 13.437 3.91841C13.7392 3.79363 14.063 3.7296 14.3899 3.73H96.6099C97.2699 3.72973 97.9029 3.99157 98.3699 4.45795C98.8368 4.92432 99.0994 5.55705 99.0999 6.217V177.784C99.0995 178.111 99.0348 178.434 98.9093 178.736C98.7839 179.038 98.6002 179.312 98.3688 179.543C98.1374 179.774 97.8628 179.957 97.5607 180.082C97.2585 180.206 96.9348 180.27 96.6079 180.27" fill="#88B8F9"/>
<path d="M68.8119 11.19H42.188C41.8611 11.1899 41.5375 11.1254 41.2355 11.0002C40.9336 10.8749 40.6593 10.6915 40.4283 10.4603C40.1972 10.2291 40.014 9.95461 39.889 9.65258C39.7641 9.35055 39.6998 9.02686 39.7 8.7V0H71.3V8.7C71.2997 9.02694 71.235 9.35063 71.1096 9.65258C70.9842 9.95452 70.8006 10.2288 70.5692 10.4598C70.3378 10.6907 70.0631 10.8738 69.7609 10.9986C69.4587 11.1234 69.1349 11.1874 68.8079 11.187" fill="#241F55"/>
<path d="M14.228 180.123V8.555C14.2283 8.2281 14.293 7.90446 14.4184 7.60257C14.5438 7.30068 14.7274 7.02647 14.9589 6.79559C15.1903 6.56472 15.465 6.38172 15.7671 6.25704C16.0693 6.13237 16.3931 6.06847 16.72 6.069H39.7V3.729H14.39C13.7301 3.72873 13.097 3.99057 12.6301 4.45695C12.1632 4.92332 11.9006 5.55605 11.9 6.216V177.783C11.9013 178.416 12.1446 179.025 12.58 179.484C13.0154 179.944 13.61 180.22 14.242 180.255C14.242 180.21 14.229 180.168 14.229 180.123" fill="white"/>
<path d="M44.5171 13.528H71.1431C71.4699 13.5283 71.7936 13.4641 72.0957 13.3393C72.3978 13.2145 72.6723 13.0313 72.9036 12.8004C73.1349 12.5695 73.3185 12.2952 73.4438 11.9934C73.5692 11.6915 73.6338 11.3679 73.6341 11.041V6.069H98.9401C98.9911 6.069 99.0401 6.081 99.0891 6.084C99.0558 5.44903 98.7803 4.85099 98.3193 4.41307C97.8583 3.97514 97.2469 3.73067 96.6111 3.73H71.3001V8.7C71.2998 9.02686 71.2352 9.35047 71.1098 9.65235C70.9845 9.95423 70.8009 10.2285 70.5696 10.4594C70.3383 10.6903 70.0638 10.8735 69.7617 10.9983C69.4596 11.1231 69.1359 11.1873 68.8091 11.187H42.1881C42.1371 11.187 42.0881 11.175 42.0391 11.172C42.0719 11.8071 42.3472 12.4055 42.8083 12.8435C43.2694 13.2815 43.8811 13.5258 44.5171 13.526" fill="white"/>
<path d="M90.443 57.127H20.556V126.873H90.443V57.127Z" fill="white"/>
<path d="M29.875 61.777H25.215V89.677H43.852V85.026H29.875V66.426H48.511V80.376H53.17V61.776H29.87L29.875 61.777Z" fill="#241F55"/>
<path d="M43.8521 71.076H34.5341V80.375H43.8521V71.076Z" fill="#241F55"/>
<path d="M53.171 85.025H48.512V89.675H53.171V85.025Z" fill="#241F55"/>
<path d="M76.4659 71.076H67.1479V80.375H76.4659V71.076Z" fill="#241F55"/>
<path d="M76.4659 85.025H67.1479V89.675H76.4659V85.025Z" fill="#241F55"/>
<path d="M81.125 61.777H57.825V89.677H62.484V66.427H81.125V89.675H85.7839V61.775L81.125 61.777Z" fill="#241F55"/>
<path d="M53.171 94.325H48.512V108.274H53.171V94.325Z" fill="#241F55"/>
<path d="M43.8521 103.624H34.5341V112.923H43.8521V103.624Z" fill="#241F55"/>
<path d="M48.511 117.573H29.875V98.973H43.852V94.323H25.215V122.223H53.171V112.923H48.511V117.573Z" fill="#241F55"/>
<path d="M81.1251 94.325H76.4661V98.975H81.1251V94.325Z" fill="#241F55"/>
<path d="M76.466 98.974H71.807V103.624H76.466V98.974Z" fill="#241F55"/>
<path d="M67.148 94.325H57.829V98.975H67.148V94.325Z" fill="#241F55"/>
<path d="M85.785 98.975H81.126V108.274H85.785V98.975Z" fill="#241F55"/>
<path d="M67.1479 108.274V112.924H71.8069V117.573H76.466V108.273H71.8069V103.623H67.1479V108.274Z" fill="#241F55"/>
<path d="M81.1251 122.223H85.7841V112.923H81.1251V117.572H76.4661V122.222L81.1251 122.223Z" fill="#241F55"/>
<path d="M71.8069 117.573H67.1479V122.223H71.8069V117.573Z" fill="#241F55"/>
<path d="M62.489 117.573H57.83V122.223H62.489V117.573Z" fill="#241F55"/>
<path d="M62.489 103.624H57.83V112.924H62.489V103.624Z" fill="#241F55"/>
<path d="M28.516 143.658H3.737V118.93H0V147.387H28.516V143.658Z" fill="#EE7231"/>
<path d="M107.263 118.93V143.658H82.485V147.388H111V118.93H107.263Z" fill="#EE7231"/>
<path d="M28.516 36.612H0V65.07H3.737V40.342H28.516V36.612Z" fill="#EE7231"/>
<path d="M82.485 36.612V40.341H107.263V65.07H111V36.612H82.485Z" fill="#EE7231"/>
</g>
</svg>
